<svg width="1000" height="12" viewBox="0 0 1000 12" fill="none" xmlns="http://www.w3.org/2000/svg">
<path d="M11.8027 0H0V11.1851H11.8027V0Z" fill="#B99812"/>
<path d="M23.6054 0H11.8027V11.1851H23.6054V0Z" fill="#B99912"/>
<path d="M35.4081 0H23.6055V11.1851H35.4081V0Z" fill="#BA9A12"/>
<path d="M47.2109 0H35.4082V11.1851H47.2109V0Z" fill="#BA9B12"/>
<path d="M59.082 0H47.2793V11.1851H59.082V0Z" fill="#BB9C12"/>
<path d="M70.8847 0H59.082V11.1851H70.8847V0Z" fill="#BB9E12"/>
<path d="M82.6869 0H70.8843V11.1851H82.6869V0Z" fill="#BB9F11"/>
<path d="M94.4897 0H82.687V11.1851H94.4897V0Z" fill="#BCA011"/>
<path d="M106.361 0H94.5581V11.1851H106.361V0Z" fill="#BCA111"/>
<path d="M118.163 0H106.361V11.1851H118.163V0Z" fill="#BDA211"/>
<path d="M129.967 0H118.164V11.1851H129.967V0Z" fill="#BDA311"/>
<path d="M131.476 0H129.966V11.1851H131.476V0Z" fill="#BDA311"/>
<path d="M132.986 0H131.476V11.1851H132.986V0Z" fill="#BEA412"/>
<path d="M134.495 0H132.985V11.1851H134.495V0Z" fill="#BEA513"/>
<path d="M135.936 0H134.427V11.1851H135.936V0Z" fill="#BFA514"/>
<path d="M137.446 0H135.937V11.1851H137.446V0Z" fill="#C0A615"/>
<path d="M138.887 0H137.377V11.1851H138.887V0Z" fill="#C0A716"/>
<path d="M140.396 0H138.887V11.1851H140.396V0Z" fill="#C1A817"/>
<path d="M141.906 0H140.396V11.1851H141.906V0Z" fill="#C2A818"/>
<path d="M143.348 0H141.838V11.1851H143.348V0Z" fill="#C2A919"/>
<path d="M144.857 0H143.347V11.1851H144.857V0Z" fill="#C3AA1A"/>
<path d="M146.367 0H144.857V11.1851H146.367V0Z" fill="#C4AB1B"/>
<path d="M147.808 0H146.298V11.1851H147.808V0Z" fill="#C4AB1C"/>
<path d="M149.317 0H147.808V11.1851H149.317V0Z" fill="#C5AC1D"/>
<path d="M150.827 0H149.317V11.1851H150.827V0Z" fill="#C6AD1E"/>
<path d="M152.268 0H150.758V11.1851H152.268V0Z" fill="#C6AE1F"/>
<path d="M153.778 0H152.268V11.1851H153.778V0Z" fill="#C7AE20"/>
<path d="M155.287 0H153.778V11.1851H155.287V0Z" fill="#C8AF21"/>
<path d="M156.728 0H155.219V11.1851H156.728V0Z" fill="#C8B022"/>
<path d="M158.238 0H156.728V11.1851H158.238V0Z" fill="#C9B123"/>
<path d="M159.679 0H158.169V11.1851H159.679V0Z" fill="#CAB124"/>
<path d="M161.189 0H159.679V11.1851H161.189V0Z" fill="#CAB225"/>
<path d="M162.698 0H161.188V11.1851H162.698V0Z" fill="#CBB326"/>
<path d="M164.139 0H162.629V11.1851H164.139V0Z" fill="#CCB427"/>
<path d="M165.649 0H164.139V11.1851H165.649V0Z" fill="#CCB428"/>
<path d="M167.159 0H165.649V11.1851H167.159V0Z" fill="#CDB529"/>
<path d="M168.599 0H167.09V11.1851H168.599V0Z" fill="#CEB62A"/>
<path d="M170.109 0H168.6V11.1851H170.109V0Z" fill="#CEB72B"/>
<path d="M171.619 0H170.109V11.1851H171.619V0Z" fill="#CFB82C"/>
<path d="M173.06 0H171.55V11.1851H173.06V0Z" fill="#CFB82D"/>
<path d="M174.57 0H173.06V11.1851H174.57V0Z" fill="#D0B92E"/>
<path d="M176.01 0H174.5V11.1851H176.01V0Z" fill="#D1BA2F"/>
<path d="M177.52 0H176.01V11.1851H177.52V0Z" fill="#D1BB30"/>
<path d="M179.03 0H177.52V11.1851H179.03V0Z" fill="#D2BB31"/>
<path d="M180.471 0H178.961V11.1851H180.471V0Z" fill="#D3BC32"/>
<path d="M181.98 0H180.471V11.1851H181.98V0Z" fill="#D3BD33"/>
<path d="M183.49 0H181.98V11.1851H183.49V0Z" fill="#D4BE34"/>
<path d="M184.931 0H183.421V11.1851H184.931V0Z" fill="#D5BE35"/>
<path d="M186.441 0H184.931V11.1851H186.441V0Z" fill="#D5BF36"/>
<path d="M187.951 0H186.441V11.1851H187.951V0Z" fill="#D6C037"/>
<path d="M189.391 0H187.881V11.1851H189.391V0Z" fill="#D7C138"/>
<path d="M190.901 0H189.391V11.1851H190.901V0Z" fill="#D7C139"/>
<path d="M192.411 0H190.901V11.1851H192.411V0Z" fill="#D8C23A"/>
<path d="M193.851 0H192.342V11.1851H193.851V0Z" fill="#D9C33B"/>
<path d="M195.361 0H193.852V11.1851H195.361V0Z" fill="#D9C43C"/>
<path d="M196.803 0H195.293V11.1851H196.803V0Z" fill="#DAC43D"/>
<path d="M198.312 0H196.802V11.1851H198.312V0Z" fill="#DBC53E"/>
<path d="M199.822 0H198.312V11.1851H199.822V0Z" fill="#DBC63F"/>
<path d="M201.263 0H199.753V11.1851H201.263V0Z" fill="#DCC740"/>
<path d="M202.772 0H201.263V11.1851H202.772V0Z" fill="#DDC741"/>
<path d="M204.282 0H202.772V11.1851H204.282V0Z" fill="#DDC842"/>
<path d="M205.723 0H204.213V11.1851H205.723V0Z" fill="#DEC944"/>
<path d="M207.232 0H205.723V11.1851H207.232V0Z" fill="#DFCA45"/>
<path d="M208.742 0H207.232V11.1851H208.742V0Z" fill="#DFCB46"/>
<path d="M210.183 0H208.674V11.1851H210.183V0Z" fill="#E0CB47"/>
<path d="M211.693 0H210.183V11.1851H211.693V0Z" fill="#E1CC48"/>
<path d="M213.202 0H211.693V11.1851H213.202V0Z" fill="#E1CD49"/>
<path d="M214.643 0H213.134V11.1851H214.643V0Z" fill="#E2CE4A"/>
<path d="M216.153 0H214.644V11.1851H216.153V0Z" fill="#E3CE4B"/>
<path d="M217.594 0H216.084V11.1851H217.594V0Z" fill="#E3CF4C"/>
<path d="M219.104 0H217.594V11.1851H219.104V0Z" fill="#E4D04D"/>
<path d="M220.613 0H219.104V11.1851H220.613V0Z" fill="#E5D14E"/>
<path d="M222.055 0H220.545V11.1851H222.055V0Z" fill="#E5D14F"/>
<path d="M223.564 0H222.055V11.1851H223.564V0Z" fill="#E6D250"/>
<path d="M225.074 0H223.564V11.1851H225.074V0Z" fill="#E7D351"/>
<path d="M226.515 0H225.005V11.1851H226.515V0Z" fill="#E7D452"/>
<path d="M228.024 0H226.515V11.1851H228.024V0Z" fill="#E8D453"/>
<path d="M229.534 0H228.024V11.1851H229.534V0Z" fill="#E9D554"/>
<path d="M230.975 0H229.465V11.1851H230.975V0Z" fill="#E9D655"/>
<path d="M232.485 0H230.975V11.1851H232.485V0Z" fill="#EAD756"/>
<path d="M233.994 0H232.484V11.1851H233.994V0Z" fill="#EBD757"/>
<path d="M235.435 0H233.926V11.1851H235.435V0Z" fill="#EBD858"/>
<path d="M236.945 0H235.436V11.1851H236.945V0Z" fill="#ECD959"/>
<path d="M238.386 0H236.876V11.1851H238.386V0Z" fill="#EDDA5A"/>
<path d="M239.896 0H238.386V11.1851H239.896V0Z" fill="#EDDA5B"/>
<path d="M241.406 0H239.896V11.1851H241.406V0Z" fill="#EEDB5C"/>
<path d="M242.847 0H241.337V11.1851H242.847V0Z" fill="#EFDC5D"/>
<path d="M244.356 0H242.846V11.1851H244.356V0Z" fill="#EFDD5E"/>
<path d="M245.866 0H244.356V11.1851H245.866V0Z" fill="#F0DE5F"/>
<path d="M247.307 0H245.797V11.1851H247.307V0Z" fill="#F0DE60"/>
<path d="M248.816 0H247.307V11.1851H248.816V0Z" fill="#F1DF61"/>
<path d="M250.326 0H248.816V11.1851H250.326V0Z" fill="#F2E062"/>
<path d="M251.767 0H250.257V11.1851H251.767V0Z" fill="#F2E163"/>
<path d="M253.277 0H251.767V11.1851H253.277V0Z" fill="#F3E164"/>
<path d="M254.787 0H253.277V11.1851H254.787V0Z" fill="#F4E265"/>
<path d="M256.227 0H254.718V11.1851H256.227V0Z" fill="#F4E366"/>
<path d="M257.737 0H256.227V11.1851H257.737V0Z" fill="#F5E467"/>
<path d="M259.178 0H257.668V11.1851H259.178V0Z" fill="#F6E468"/>
<path d="M260.688 0H259.178V11.1851H260.688V0Z" fill="#F6E569"/>
<path d="M262.197 0H260.688V11.1851H262.197V0Z" fill="#F7E66A"/>
<path d="M263.638 0H262.128V11.1851H263.638V0Z" fill="#F8E76B"/>
<path d="M265.148 0H263.638V11.1851H265.148V0Z" fill="#F8E76C"/>
<path d="M266.658 0H265.148V11.1851H266.658V0Z" fill="#F9E86D"/>
<path d="M268.098 0H266.589V11.1851H268.098V0Z" fill="#FAE96E"/>
<path d="M269.608 0H268.099V11.1851H269.608V0Z" fill="#FAEA6F"/>
<path d="M271.118 0H269.608V11.1851H271.118V0Z" fill="#FBEA70"/>
<path d="M272.559 0H271.049V11.1851H272.559V0Z" fill="#FCEB71"/>
<path d="M274.069 0H272.559V11.1851H274.069V0Z" fill="#FCEC72"/>
<path d="M275.578 0H274.068V11.1851H275.578V0Z" fill="#FDED73"/>
<path d="M277.019 0H275.509V11.1851H277.019V0Z" fill="#FEED74"/>
<path d="M278.529 0H277.019V11.1851H278.529V0Z" fill="#FEEE75"/>
<path d="M279.97 0H278.46V11.1851H279.97V0Z" fill="#FFEF76"/>
<path d="M283.263 0H279.97V11.1851H283.263V0Z" fill="#FFEF76"/>
<path d="M286.557 0H283.264V11.1851H286.557V0Z" fill="#FEEE75"/>
<path d="M289.851 0H286.558V11.1851H289.851V0Z" fill="#FEED74"/>
<path d="M293.145 0H289.851V11.1851H293.145V0Z" fill="#FDEC73"/>
<path d="M296.439 0H293.145V11.1851H296.439V0Z" fill="#FCEC72"/>
<path d="M299.732 0H296.438V11.1851H299.732V0Z" fill="#FBEB71"/>
<path d="M303.026 0H299.732V11.1851H303.026V0Z" fill="#FBEA70"/>
<path d="M306.32 0H303.026V11.1851H306.32V0Z" fill="#FAE96F"/>
<path d="M309.614 0H306.32V11.1851H309.614V0Z" fill="#F9E86E"/>
<path d="M312.908 0H309.614V11.1851H312.908V0Z" fill="#F9E76D"/>
<path d="M316.201 0H312.907V11.1851H316.201V0Z" fill="#F8E66C"/>
<path d="M319.495 0H316.201V11.1851H319.495V0Z" fill="#F7E56B"/>
<path d="M322.789 0H319.495V11.1851H322.789V0Z" fill="#F7E56A"/>
<path d="M326.082 0H322.789V11.1851H326.082V0Z" fill="#F6E469"/>
<path d="M329.376 0H326.083V11.1851H329.376V0Z" fill="#F5E368"/>
<path d="M332.67 0H329.376V11.1851H332.67V0Z" fill="#F4E267"/>
<path d="M335.964 0H332.67V11.1851H335.964V0Z" fill="#F4E166"/>
<path d="M339.258 0H335.964V11.1851H339.258V0Z" fill="#F3E065"/>
<path d="M342.551 0H339.257V11.1851H342.551V0Z" fill="#F2DF64"/>
<path d="M345.845 0H342.551V11.1851H345.845V0Z" fill="#F2DE63"/>
<path d="M349.139 0H345.845V11.1851H349.139V0Z" fill="#F1DE62"/>
<path d="M352.432 0H349.139V11.1851H352.432V0Z" fill="#F0DD61"/>
<path d="M355.726 0H352.433V11.1851H355.726V0Z" fill="#F0DC60"/>
<path d="M359.02 0H355.726V11.1851H359.02V0Z" fill="#EFDB5F"/>
<path d="M362.314 0H359.02V11.1851H362.314V0Z" fill="#EEDA5E"/>
<path d="M365.608 0H362.314V11.1851H365.608V0Z" fill="#EDD95D"/>
<path d="M368.902 0H365.608V11.1851H368.902V0Z" fill="#EDD85C"/>
<path d="M372.195 0H368.901V11.1851H372.195V0Z" fill="#ECD85B"/>
<path d="M375.489 0H372.195V11.1851H375.489V0Z" fill="#EBD75A"/>
<path d="M378.783 0H375.489V11.1851H378.783V0Z" fill="#EBD659"/>
<path d="M382.076 0H378.783V11.1851H382.076V0Z" fill="#EAD558"/>
<path d="M385.37 0H382.077V11.1851H385.37V0Z" fill="#E9D457"/>
<path d="M388.664 0H385.37V11.1851H388.664V0Z" fill="#E9D356"/>
<path d="M391.958 0H388.664V11.1851H391.958V0Z" fill="#E8D255"/>
<path d="M395.251 0H391.958V11.1851H395.251V0Z" fill="#E7D154"/>
<path d="M398.545 0H395.251V11.1851H398.545V0Z" fill="#E6D153"/>
<path d="M401.839 0H398.545V11.1851H401.839V0Z" fill="#E6D052"/>
<path d="M405.133 0H401.839V11.1851H405.133V0Z" fill="#E5CF51"/>
<path d="M408.427 0H405.133V11.1851H408.427V0Z" fill="#E4CE50"/>
<path d="M411.72 0H408.426V11.1851H411.72V0Z" fill="#E4CD4F"/>
<path d="M415.014 0H411.72V11.1851H415.014V0Z" fill="#E3CC4E"/>
<path d="M418.308 0H415.014V11.1851H418.308V0Z" fill="#E2CB4D"/>
<path d="M421.602 0H418.308V11.1851H421.602V0Z" fill="#E2CB4C"/>
<path d="M424.895 0H421.602V11.1851H424.895V0Z" fill="#E1CA4A"/>
<path d="M428.189 0H424.895V11.1851H428.189V0Z" fill="#E0C949"/>
<path d="M431.483 0H428.189V11.1851H431.483V0Z" fill="#DFC848"/>
<path d="M434.777 0H431.483V11.1851H434.777V0Z" fill="#DFC747"/>
<path d="M438.071 0H434.777V11.1851H438.071V0Z" fill="#DEC646"/>
<path d="M441.364 0H438.07V11.1851H441.364V0Z" fill="#DDC545"/>
<path d="M444.658 0H441.364V11.1851H444.658V0Z" fill="#DDC444"/>
<path d="M447.951 0H444.658V11.1851H447.951V0Z" fill="#DCC443"/>
<path d="M451.245 0H447.952V11.1851H451.245V0Z" fill="#DBC342"/>
<path d="M454.539 0H451.246V11.1851H454.539V0Z" fill="#DAC241"/>
<path d="M457.833 0H454.539V11.1851H457.833V0Z" fill="#DAC140"/>
<path d="M461.127 0H457.833V11.1851H461.127V0Z" fill="#D9C03F"/>
<path d="M464.421 0H461.127V11.1851H464.421V0Z" fill="#D8BF3E"/>
<path d="M467.715 0H464.421V11.1851H467.715V0Z" fill="#D8BE3D"/>
<path d="M471.008 0H467.714V11.1851H471.008V0Z" fill="#D7BD3C"/>
<path d="M474.302 0H471.008V11.1851H474.302V0Z" fill="#D6BD3B"/>
<path d="M477.596 0H474.302V11.1851H477.596V0Z" fill="#D6BC3A"/>
<path d="M480.889 0H477.596V11.1851H480.889V0Z" fill="#D5BB39"/>
<path d="M484.183 0H480.89V11.1851H484.183V0Z" fill="#D4BA38"/>
<path d="M487.477 0H484.183V11.1851H487.477V0Z" fill="#D3B937"/>
<path d="M490.771 0H487.477V11.1851H490.771V0Z" fill="#D3B836"/>
<path d="M494.064 0H490.771V11.1851H494.064V0Z" fill="#D2B735"/>
<path d="M497.358 0H494.064V11.1851H497.358V0Z" fill="#D1B734"/>
<path d="M500.652 0H497.358V11.1851H500.652V0Z" fill="#D1B633"/>
<path d="M503.946 0H500.652V11.1851H503.946V0Z" fill="#D0B532"/>
<path d="M507.24 0H503.946V11.1851H507.24V0Z" fill="#CFB431"/>
<path d="M510.533 0H507.239V11.1851H510.533V0Z" fill="#CFB330"/>
<path d="M513.827 0H510.533V11.1851H513.827V0Z" fill="#CEB22F"/>
<path d="M517.121 0H513.827V11.1851H517.121V0Z" fill="#CDB12E"/>
<path d="M520.414 0H517.121V11.1851H520.414V0Z" fill="#CCB02D"/>
<path d="M523.708 0H520.415V11.1851H523.708V0Z" fill="#CCB02C"/>
<path d="M527.002 0H523.708V11.1851H527.002V0Z" fill="#CBAF2B"/>
<path d="M530.296 0H527.002V11.1851H530.296V0Z" fill="#CAAE2A"/>
<path d="M533.59 0H530.296V11.1851H533.59V0Z" fill="#CAAD29"/>
<path d="M536.883 0H533.589V11.1851H536.883V0Z" fill="#C9AC28"/>
<path d="M540.177 0H536.883V11.1851H540.177V0Z" fill="#C8AB27"/>
<path d="M543.471 0H540.177V11.1851H543.471V0Z" fill="#C8AA26"/>
<path d="M546.764 0H543.471V11.1851H546.764V0Z" fill="#C7A925"/>
<path d="M550.058 0H546.765V11.1851H550.058V0Z" fill="#C6A924"/>
<path d="M553.352 0H550.059V11.1851H553.352V0Z" fill="#C5A823"/>
<path d="M556.646 0H553.352V11.1851H556.646V0Z" fill="#C5A722"/>
<path d="M559.939 0H556.646V11.1851H559.939V0Z" fill="#C4A621"/>
<path d="M568.723 0H559.939V11.1851H568.723V0Z" fill="#C4A621"/>
<path d="M577.507 0H568.723V11.1851H577.507V0Z" fill="#C4A620"/>
<path d="M586.358 0H577.575V11.1851H586.358V0Z" fill="#C4A61F"/>
<path d="M595.142 0H586.358V11.1851H595.142V0Z" fill="#C4A51E"/>
<path d="M603.925 0H595.142V11.1851H603.925V0Z" fill="#C4A51D"/>
<path d="M612.709 0H603.925V11.1851H612.709V0Z" fill="#C3A51C"/>
<path d="M621.492 0H612.708V11.1851H621.492V0Z" fill="#C3A51B"/>
<path d="M630.275 0H621.492V11.1851H630.275V0Z" fill="#C3A41A"/>
<path d="M639.059 0H630.275V11.1851H639.059V0Z" fill="#C3A419"/>
<path d="M647.842 0H639.059V11.1851H647.842V0Z" fill="#C3A418"/>
<path d="M656.625 0H647.842V11.1851H656.625V0Z" fill="#C3A417"/>
<path d="M665.409 0H656.625V11.1851H665.409V0Z" fill="#C3A416"/>
<path d="M674.192 0H665.409V11.1851H674.192V0Z" fill="#C3A315"/>
<path d="M682.975 0H674.192V11.1851H682.975V0Z" fill="#C2A314"/>
<path d="M691.758 0H682.975V11.1851H691.758V0Z" fill="#C2A313"/>
<path d="M700.542 0H691.759V11.1851H700.542V0Z" fill="#C2A312"/>
<path d="M709.325 0H700.542V11.1851H709.325V0Z" fill="#C2A311"/>
<path d="M718.109 0H709.326V11.1851H718.109V0Z" fill="#C2A20F"/>
<path d="M726.961 0H718.178V11.1851H726.961V0Z" fill="#C2A20E"/>
<path d="M735.744 0H726.961V11.1851H735.744V0Z" fill="#C2A20D"/>
<path d="M744.528 0H735.744V11.1851H744.528V0Z" fill="#C2A20C"/>
<path d="M753.311 0H744.528V11.1851H753.311V0Z" fill="#C1A10B"/>
<path d="M762.094 0H753.311V11.1851H762.094V0Z" fill="#C1A10A"/>
<path d="M770.878 0H762.094V11.1851H770.878V0Z" fill="#C1A109"/>
<path d="M779.661 0H770.877V11.1851H779.661V0Z" fill="#C1A108"/>
<path d="M788.445 0H779.661V11.1851H788.445V0Z" fill="#C1A107"/>
<path d="M797.228 0H788.444V11.1851H797.228V0Z" fill="#C1A006"/>
<path d="M806.011 0H797.228V11.1851H806.011V0Z" fill="#C1A005"/>
<path d="M814.795 0H806.011V11.1851H814.795V0Z" fill="#C1A004"/>
<path d="M823.578 0H814.794V11.1851H823.578V0Z" fill="#C0A003"/>
<path d="M832.361 0H823.578V11.1851H832.361V0Z" fill="#C09F02"/>
<path d="M841.145 0H832.361V11.1851H841.145V0Z" fill="#C09F01"/>
<path d="M849.928 0H841.145V11.1851H849.928V0Z" fill="#C09F00"/>
<path d="M850.958 0H849.928V11.1851H850.958V0Z" fill="#C09F00"/>
<path d="M852.055 0H851.026V11.1851H852.055V0Z" fill="#C1A001"/>
<path d="M853.084 0H852.055V11.1851H853.084V0Z" fill="#C1A002"/>
<path d="M854.114 0H853.084V11.1851H854.114V0Z" fill="#C2A103"/>
<path d="M855.143 0H854.114V11.1851H855.143V0Z" fill="#C2A204"/>
<path d="M856.172 0H855.143V11.1851H856.172V0Z" fill="#C3A305"/>
<path d="M857.202 0H856.172V11.1851H857.202V0Z" fill="#C3A306"/>
<path d="M858.231 0H857.202V11.1851H858.231V0Z" fill="#C4A407"/>
<path d="M859.26 0H858.231V11.1851H859.26V0Z" fill="#C4A508"/>
<path d="M860.29 0H859.26V11.1851H860.29V0Z" fill="#C5A609"/>
<path d="M861.319 0H860.29V11.1851H861.319V0Z" fill="#C5A60A"/>
<path d="M862.348 0H861.319V11.1851H862.348V0Z" fill="#C6A70B"/>
<path d="M863.377 0H862.348V11.1851H863.377V0Z" fill="#C7A80C"/>
<path d="M864.407 0H863.377V11.1851H864.407V0Z" fill="#C7A90D"/>
<path d="M865.436 0H864.407V11.1851H865.436V0Z" fill="#C8A90E"/>
<path d="M866.534 0H865.504V11.1851H866.534V0Z" fill="#C8AA0F"/>
<path d="M867.563 0H866.534V11.1851H867.563V0Z" fill="#C9AB10"/>
<path d="M868.592 0H867.563V11.1851H868.592V0Z" fill="#C9AC11"/>
<path d="M869.622 0H868.592V11.1851H869.622V0Z" fill="#CAAC12"/>
<path d="M870.651 0H869.622V11.1851H870.651V0Z" fill="#CAAD13"/>
<path d="M871.68 0H870.651V11.1851H871.68V0Z" fill="#CBAE14"/>
<path d="M872.709 0H871.68V11.1851H872.709V0Z" fill="#CBAE15"/>
<path d="M873.739 0H872.709V11.1851H873.739V0Z" fill="#CCAF16"/>
<path d="M874.768 0H873.739V11.1851H874.768V0Z" fill="#CDB017"/>
<path d="M875.797 0H874.768V11.1851H875.797V0Z" fill="#CDB118"/>
<path d="M876.827 0H875.797V11.1851H876.827V0Z" fill="#CEB119"/>
<path d="M877.856 0H876.827V11.1851H877.856V0Z" fill="#CEB21A"/>
<path d="M878.885 0H877.856V11.1851H878.885V0Z" fill="#CFB31B"/>
<path d="M879.983 0H878.954V11.1851H879.983V0Z" fill="#CFB41C"/>
<path d="M881.013 0H879.983V11.1851H881.013V0Z" fill="#D0B41E"/>
<path d="M882.042 0H881.013V11.1851H882.042V0Z" fill="#D0B51F"/>
<path d="M883.071 0H882.042V11.1851H883.071V0Z" fill="#D1B620"/>
<path d="M884.101 0H883.071V11.1851H884.101V0Z" fill="#D1B721"/>
<path d="M885.13 0H884.101V11.1851H885.13V0Z" fill="#D2B722"/>
<path d="M886.159 0H885.13V11.1851H886.159V0Z" fill="#D2B823"/>
<path d="M887.188 0H886.159V11.1851H887.188V0Z" fill="#D3B924"/>
<path d="M888.218 0H887.188V11.1851H888.218V0Z" fill="#D4BA25"/>
<path d="M889.247 0H888.218V11.1851H889.247V0Z" fill="#D4BA26"/>
<path d="M890.276 0H889.247V11.1851H890.276V0Z" fill="#D5BB27"/>
<path d="M891.306 0H890.276V11.1851H891.306V0Z" fill="#D5BC28"/>
<path d="M892.335 0H891.306V11.1851H892.335V0Z" fill="#D6BC29"/>
<path d="M893.433 0H892.404V11.1851H893.433V0Z" fill="#D6BD2A"/>
<path d="M894.462 0H893.433V11.1851H894.462V0Z" fill="#D7BE2B"/>
<path d="M895.492 0H894.462V11.1851H895.492V0Z" fill="#D7BF2C"/>
<path d="M896.521 0H895.492V11.1851H896.521V0Z" fill="#D8BF2D"/>
<path d="M897.55 0H896.521V11.1851H897.55V0Z" fill="#D8C02E"/>
<path d="M898.58 0H897.55V11.1851H898.58V0Z" fill="#D9C12F"/>
<path d="M899.609 0H898.58V11.1851H899.609V0Z" fill="#DAC230"/>
<path d="M900.638 0H899.609V11.1851H900.638V0Z" fill="#DAC231"/>
<path d="M901.667 0H900.638V11.1851H901.667V0Z" fill="#DBC332"/>
<path d="M902.697 0H901.667V11.1851H902.697V0Z" fill="#DBC433"/>
<path d="M903.726 0H902.697V11.1851H903.726V0Z" fill="#DCC534"/>
<path d="M904.755 0H903.726V11.1851H904.755V0Z" fill="#DCC535"/>
<path d="M905.785 0H904.755V11.1851H905.785V0Z" fill="#DDC636"/>
<path d="M906.814 0H905.785V11.1851H906.814V0Z" fill="#DDC737"/>
<path d="M907.912 0H906.883V11.1851H907.912V0Z" fill="#DEC838"/>
<path d="M908.941 0H907.912V11.1851H908.941V0Z" fill="#DEC839"/>
<path d="M909.971 0H908.941V11.1851H909.971V0Z" fill="#DFC93A"/>
<path d="M911.137 0H909.971V11.1851H911.137V0Z" fill="#DFC93A"/>
<path d="M912.235 0H911.068V11.1851H912.235V0Z" fill="#DFC93B"/>
<path d="M913.401 0H912.235V11.1851H913.401V0Z" fill="#E0CA3C"/>
<path d="M914.568 0H913.402V11.1851H914.568V0Z" fill="#E0CA3D"/>
<path d="M915.666 0H914.5V11.1851H915.666V0Z" fill="#E1CB3E"/>
<path d="M916.833 0H915.666V11.1851H916.833V0Z" fill="#E1CB3F"/>
<path d="M917.931 0H916.764V11.1851H917.931V0Z" fill="#E1CB40"/>
<path d="M919.097 0H917.93V11.1851H919.097V0Z" fill="#E2CC41"/>
<path d="M920.264 0H919.097V11.1851H920.264V0Z" fill="#E2CC42"/>
<path d="M921.361 0H920.195V11.1851H921.361V0Z" fill="#E3CD43"/>
<path d="M922.528 0H921.361V11.1851H922.528V0Z" fill="#E3CD44"/>
<path d="M923.626 0H922.459V11.1851H923.626V0Z" fill="#E4CD45"/>
<path d="M924.792 0H923.626V11.1851H924.792V0Z" fill="#E4CE46"/>
<path d="M925.959 0H924.792V11.1851H925.959V0Z" fill="#E4CE47"/>
<path d="M927.057 0H925.89V11.1851H927.057V0Z" fill="#E5CF48"/>
<path d="M928.224 0H927.057V11.1851H928.224V0Z" fill="#E5CF49"/>
<path d="M929.321 0H928.155V11.1851H929.321V0Z" fill="#E6CF4A"/>
<path d="M930.488 0H929.321V11.1851H930.488V0Z" fill="#E6D04B"/>
<path d="M931.654 0H930.488V11.1851H931.654V0Z" fill="#E6D04C"/>
<path d="M932.752 0H931.586V11.1851H932.752V0Z" fill="#E7D14D"/>
<path d="M933.919 0H932.752V11.1851H933.919V0Z" fill="#E7D14E"/>
<path d="M935.017 0H933.85V11.1851H935.017V0Z" fill="#E8D14F"/>
<path d="M936.184 0H935.017V11.1851H936.184V0Z" fill="#E8D250"/>
<path d="M937.35 0H936.183V11.1851H937.35V0Z" fill="#E8D251"/>
<path d="M938.448 0H937.281V11.1851H938.448V0Z" fill="#E9D352"/>
<path d="M939.614 0H938.448V11.1851H939.614V0Z" fill="#E9D353"/>
<path d="M940.712 0H939.546V11.1851H940.712V0Z" fill="#EAD354"/>
<path d="M941.879 0H940.712V11.1851H941.879V0Z" fill="#EAD455"/>
<path d="M943.045 0H941.879V11.1851H943.045V0Z" fill="#EAD456"/>
<path d="M944.143 0H942.977V11.1851H944.143V0Z" fill="#EBD557"/>
<path d="M945.31 0H944.143V11.1851H945.31V0Z" fill="#EBD558"/>
<path d="M946.408 0H945.241V11.1851H946.408V0Z" fill="#ECD559"/>
<path d="M947.574 0H946.408V11.1851H947.574V0Z" fill="#ECD65A"/>
<path d="M948.741 0H947.574V11.1851H948.741V0Z" fill="#EDD65B"/>
<path d="M949.839 0H948.672V11.1851H949.839V0Z" fill="#EDD75C"/>
<path d="M951.005 0H949.839V11.1851H951.005V0Z" fill="#EDD75D"/>
<path d="M952.103 0H950.937V11.1851H952.103V0Z" fill="#EED75E"/>
<path d="M953.27 0H952.103V11.1851H953.27V0Z" fill="#EED85F"/>
<path d="M954.437 0H953.27V11.1851H954.437V0Z" fill="#EFD860"/>
<path d="M955.534 0H954.368V11.1851H955.534V0Z" fill="#EFD962"/>
<path d="M956.701 0H955.534V11.1851H956.701V0Z" fill="#EFD963"/>
<path d="M957.799 0H956.632V11.1851H957.799V0Z" fill="#F0D964"/>
<path d="M958.965 0H957.798V11.1851H958.965V0Z" fill="#F0DA65"/>
<path d="M960.132 0H958.965V11.1851H960.132V0Z" fill="#F1DA66"/>
<path d="M961.229 0H960.063V11.1851H961.229V0Z" fill="#F1DA67"/>
<path d="M962.396 0H961.229V11.1851H962.396V0Z" fill="#F1DB68"/>
<path d="M963.494 0H962.328V11.1851H963.494V0Z" fill="#F2DB69"/>
<path d="M964.661 0H963.494V11.1851H964.661V0Z" fill="#F2DC6A"/>
<path d="M965.827 0H964.661V11.1851H965.827V0Z" fill="#F3DC6B"/>
<path d="M966.925 0H965.759V11.1851H966.925V0Z" fill="#F3DC6C"/>
<path d="M968.092 0H966.925V11.1851H968.092V0Z" fill="#F4DD6D"/>
<path d="M969.19 0H968.023V11.1851H969.19V0Z" fill="#F4DD6E"/>
<path d="M970.356 0H969.189V11.1851H970.356V0Z" fill="#F4DE6F"/>
<path d="M971.523 0H970.356V11.1851H971.523V0Z" fill="#F5DE70"/>
<path d="M972.621 0H971.454V11.1851H972.621V0Z" fill="#F5DE71"/>
<path d="M973.787 0H972.621V11.1851H973.787V0Z" fill="#F6DF72"/>
<path d="M974.885 0H973.719V11.1851H974.885V0Z" fill="#F6DF73"/>
<path d="M976.052 0H974.885V11.1851H976.052V0Z" fill="#F6E074"/>
<path d="M977.218 0H976.052V11.1851H977.218V0Z" fill="#F7E075"/>
<path d="M978.316 0H977.149V11.1851H978.316V0Z" fill="#F7E076"/>
<path d="M979.483 0H978.316V11.1851H979.483V0Z" fill="#F8E177"/>
<path d="M980.581 0H979.414V11.1851H980.581V0Z" fill="#F8E178"/>
<path d="M981.747 0H980.581V11.1851H981.747V0Z" fill="#F8E279"/>
<path d="M982.914 0H981.747V11.1851H982.914V0Z" fill="#F9E27A"/>
<path d="M984.011 0H982.845V11.1851H984.011V0Z" fill="#F9E27B"/>
<path d="M985.178 0H984.012V11.1851H985.178V0Z" fill="#FAE37C"/>
<path d="M986.276 0H985.109V11.1851H986.276V0Z" fill="#FAE37D"/>
<path d="M987.442 0H986.276V11.1851H987.442V0Z" fill="#FAE47E"/>
<path d="M988.609 0H987.442V11.1851H988.609V0Z" fill="#FBE47F"/>
<path d="M989.707 0H988.541V11.1851H989.707V0Z" fill="#FBE480"/>
<path d="M990.874 0H989.707V11.1851H990.874V0Z" fill="#FCE581"/>
<path d="M991.971 0H990.805V11.1851H991.971V0Z" fill="#FCE582"/>
<path d="M993.138 0H991.972V11.1851H993.138V0Z" fill="#FDE683"/>
<path d="M994.305 0H993.138V11.1851H994.305V0Z" fill="#FDE684"/>
<path d="M995.402 0H994.236V11.1851H995.402V0Z" fill="#FDE685"/>
<path d="M996.569 0H995.403V11.1851H996.569V0Z" fill="#FEE786"/>
<path d="M997.667 0H996.5V11.1851H997.667V0Z" fill="#FEE787"/>
<path d="M998.833 0H997.667V11.1851H998.833V0Z" fill="#FFE888"/>
<path d="M1000 0H998.833V11.1851H1000V0Z" fill="#FFE889"/>
</svg>
