<svg width="1458" height="544" viewBox="0 0 1458 544" fill="none" xmlns="http://www.w3.org/2000/svg">
<path d="M1046.6 527V512.3H1137.2L1019.9 440.3V390.8H990.2V422.2L907.4 371.4L883 386.4V153.3L834.2 202.1V416.3L822.8 423.3V80.5L742.3 0V173.3L754.4 185.4V381.3L739.5 372.1V192.8L680.7 134V336.1L666.4 327.3V160.2L650.1 176.5V317.3L643.5 313.2L636.9 317.3V189.7L620.6 206V327.3L607 335.7V196.4L563.9 153.3V362.2L492.4 405.3V364.5H453.7V429.1L437.5 439L379.5 474.6H421.2V527.2H0V543.5H437.3V458.2L643.4 332.6L807.2 433.1L766 458.3L739.4 474.6L677.6 512.5H768.1V543.5H784.4V496.2H735.3L907.4 390.7L1079.5 496.2H1030.4V543.5H1457.3V527.2H1046.7V527H1046.6ZM706.7 319.8L692.1 310V292.4L706.7 302.2V319.8ZM706.7 283.5L692.1 273.7V256.1L706.7 265.9V283.5ZM706.7 246L692.1 236.2V217.3L706.7 227.1V246ZM706.7 208.5L692.1 198.7V178.5L706.7 190.9V208.5ZM727.8 334.7L713.2 324.9V307.3L727.8 317.1V334.7ZM727.8 297.2L713.2 287.4V269.8L727.8 279.6V297.2ZM727.8 259.7L713.2 249.9V232.3L727.8 242.1V259.7ZM727.8 222.2L713.2 212.4V196.1L727.8 207.2V222.2ZM777.1 395.3L768.2 389.8V64.3L777.1 73.2V395.3ZM800 409.4L791 403.9V87.2L800 96.1V409.3V409.4ZM612.3 378.6V405.4H639.1V378.6H612.3ZM647.6 378.6V405.4H674.4V378.6H647.6ZM647.6 413.9V440.7H674.4V413.9H647.6ZM612.3 413.9V440.7H639.1V413.9H612.3ZM882.9 424V445H903.9V424H882.9ZM882.9 451.7V472.7H903.9V451.7H882.9ZM910.7 424V445H931.7V424H910.7ZM910.7 451.7V472.7H931.7V451.7H910.7ZM612.3 378.6V405.4H639.1V378.6H612.3ZM612.3 413.9V440.7H639.1V413.9H612.3ZM647.6 378.6V405.4H674.4V378.6H647.6ZM647.6 413.9V440.7H674.4V413.9H647.6ZM661 64.8V131.2L680.5 111.7L725.8 157V0L661 64.8Z" fill="white"/>
</svg>
