<svg width="722" height="285" viewBox="0 0 722 285" fill="none" xmlns="http://www.w3.org/2000/svg">
<path d="M364.005 281.091C368.757 280.59 371.837 279.742 373.246 278.552C374.655 277.361 375.359 274.335 375.359 269.484V212.003C375.359 207.42 374.665 204.424 373.276 203.015C371.887 201.606 368.797 200.733 364 200.396V198H432.647L433.088 216.487H429.809C428.713 210.793 427.076 207.107 424.889 205.436C422.701 203.764 417.82 202.926 410.251 202.926H392.661C390.761 202.926 389.591 203.233 389.149 203.838C388.708 204.448 388.484 205.594 388.484 207.276V236.111H408.42C413.931 236.111 417.443 235.297 418.956 233.66C420.469 232.028 421.689 228.72 422.617 223.739H425.648V253.581H422.617C421.649 248.576 420.409 245.262 418.896 243.645C417.384 242.028 413.891 241.215 408.425 241.215H388.489V273.204C388.489 275.769 389.298 277.287 390.92 277.748C392.542 278.209 397.398 278.442 405.484 278.442C414.244 278.442 420.712 277.485 424.884 275.57C429.055 273.656 432.8 269.018 436.124 261.656H439.72L433.852 283.487H364.005V281.091Z" fill="white"/>
<path d="M448.237 263.611H450.321C451.288 268.408 452.587 272.088 454.224 274.653C457.161 279.365 461.462 281.721 467.126 281.721C470.271 281.721 472.761 280.848 474.587 279.102C476.412 277.356 477.325 275.094 477.325 272.321C477.325 270.555 476.799 268.849 475.747 267.212C474.696 265.57 472.846 263.973 470.197 262.415L463.133 258.378C457.96 255.6 454.155 252.802 451.709 249.985C449.269 247.167 448.049 243.844 448.049 240.014C448.049 235.302 449.73 231.433 453.098 228.407C456.462 225.376 460.693 223.863 465.782 223.863C468.009 223.863 470.46 224.285 473.133 225.123C475.802 225.967 477.31 226.383 477.647 226.383C478.406 226.383 478.952 226.279 479.289 226.066C479.626 225.857 479.919 225.52 480.172 225.054H481.685L482.126 242.658H480.172C479.329 238.581 478.193 235.401 476.764 233.129C474.155 228.923 470.39 226.82 465.47 226.82C462.523 226.82 460.212 227.723 458.53 229.533C456.848 231.344 456.005 233.467 456.005 235.907C456.005 239.776 458.907 243.224 464.711 246.255L473.039 250.734C481.998 255.615 486.477 261.294 486.477 267.768C486.477 272.733 484.617 276.791 480.901 279.945C477.186 283.1 472.325 284.678 466.323 284.678C463.803 284.678 460.946 284.256 457.756 283.418C454.567 282.574 452.677 282.158 452.086 282.158C451.58 282.158 451.139 282.336 450.762 282.693C450.385 283.051 450.087 283.482 449.879 283.988H448.237V263.611Z" fill="white"/>
<path d="M523.253 225.312V229.856H510.381L510.257 266.2C510.257 269.395 510.529 271.815 511.075 273.457C512.087 276.359 514.061 277.813 517.008 277.813C518.521 277.813 519.835 277.455 520.951 276.741C522.067 276.027 523.337 274.891 524.766 273.333L526.408 274.722L525.019 276.617C522.831 279.564 520.515 281.642 518.079 282.862C515.639 284.082 513.283 284.693 511.011 284.693C506.045 284.693 502.682 282.485 500.916 278.065C499.949 275.67 499.463 272.346 499.463 268.095V229.861H492.588C492.375 229.737 492.221 229.608 492.117 229.484C492.012 229.36 491.958 229.191 491.958 228.978C491.958 228.556 492.052 228.234 492.241 228C492.429 227.767 493.029 227.232 494.041 226.393C496.943 223.997 499.036 222.053 500.321 220.56C501.606 219.067 504.622 215.123 509.374 208.729C509.919 208.729 510.247 208.769 510.351 208.853C510.455 208.938 510.51 209.255 510.51 209.801V225.322H523.253V225.312Z" fill="white"/>
<path d="M540.163 255.664C544.032 253.14 551.75 249.712 563.318 245.382V240.019C563.318 235.729 562.896 232.742 562.058 231.061C560.629 228.243 557.663 226.835 553.164 226.835C551.021 226.835 548.977 227.38 547.043 228.477C545.108 229.612 544.141 231.17 544.141 233.144C544.141 233.65 544.245 234.498 544.458 235.699C544.667 236.899 544.776 237.663 544.776 238C544.776 240.357 543.997 241.999 542.439 242.921C541.556 243.467 540.505 243.74 539.285 243.74C537.39 243.74 535.941 243.12 534.929 241.879C533.917 240.639 533.416 239.26 533.416 237.747C533.416 234.806 535.237 231.721 538.873 228.506C542.514 225.287 547.841 223.68 554.87 223.68C563.03 223.68 568.561 226.329 571.463 231.631C573.02 234.533 573.799 238.759 573.799 244.315V269.618C573.799 272.058 573.968 273.74 574.305 274.668C574.85 276.309 575.986 277.128 577.713 277.128C578.68 277.128 579.478 276.979 580.108 276.686C580.738 276.394 581.835 275.675 583.387 274.544V277.822C582.038 279.464 580.59 280.809 579.032 281.86C576.676 283.457 574.28 284.256 571.839 284.256C568.977 284.256 566.909 283.333 565.624 281.478C564.339 279.628 563.635 277.421 563.511 274.851C560.317 277.629 557.578 279.687 555.307 281.037C551.477 283.309 547.841 284.444 544.389 284.444C540.773 284.444 537.638 283.175 534.989 280.63C532.34 278.085 531.016 274.856 531.016 270.942C531.016 264.846 534.066 259.752 540.163 255.674V255.664ZM563.318 248.531C558.481 250.129 554.483 251.899 551.328 253.829C545.272 257.574 542.241 261.82 542.241 266.572C542.241 270.402 543.501 273.219 546.026 275.025C547.668 276.2 549.498 276.791 551.517 276.791C554.295 276.791 556.953 276.012 559.498 274.454C562.043 272.897 563.313 270.923 563.313 268.522V248.521L563.318 248.531Z" fill="white"/>
<path d="M616.502 225.312V229.856H603.63L603.506 266.2C603.506 269.395 603.779 271.815 604.325 273.457C605.337 276.359 607.311 277.813 610.257 277.813C611.77 277.813 613.085 277.455 614.201 276.741C615.317 276.027 616.587 274.891 618.015 273.333L619.657 274.722L618.268 276.617C616.081 279.564 613.764 281.642 611.329 282.862C608.888 284.082 606.532 284.693 604.26 284.693C599.295 284.693 595.932 282.485 594.166 278.065C593.199 275.67 592.712 272.346 592.712 268.095V229.861H585.837C585.624 229.737 585.47 229.608 585.366 229.484C585.262 229.36 585.207 229.191 585.207 228.978C585.207 228.556 585.302 228.234 585.49 228C585.679 227.767 586.279 227.232 587.291 226.393C590.193 223.997 592.286 222.053 593.571 220.56C594.855 219.067 597.871 215.123 602.623 208.729C603.169 208.729 603.496 208.769 603.6 208.853C603.705 208.938 603.759 209.255 603.759 209.801V225.322H616.502V225.312Z" fill="white"/>
<path d="M664.708 230.456C669.167 234.558 671.394 240.372 671.394 247.901H631.329C631.751 257.639 633.958 264.732 637.956 269.181C641.954 273.631 646.687 275.853 652.153 275.853C656.568 275.853 660.293 274.697 663.319 272.391C666.35 270.084 669.142 266.81 671.712 262.569L673.919 263.323C672.193 268.675 668.964 273.626 664.236 278.175C659.504 282.723 653.711 285 646.855 285C638.949 285 632.837 282.014 628.527 276.042C624.216 270.069 622.058 263.194 622.058 255.411C622.058 246.959 624.558 239.657 629.568 233.516C634.573 227.375 641.091 224.305 649.127 224.305C655.06 224.305 660.253 226.354 664.713 230.456H664.708ZM634.489 235.282C633.14 237.554 632.178 240.416 631.587 243.864H658.215C657.753 239.657 656.955 236.522 655.819 234.464C653.755 230.763 650.308 228.913 645.471 228.913C640.635 228.913 637.019 231.036 634.494 235.287L634.489 235.282Z" fill="white"/>
<path d="M682.243 263.611H684.326C685.293 268.408 686.593 272.088 688.23 274.653C691.166 279.365 695.467 281.721 701.132 281.721C704.277 281.721 706.767 280.848 708.592 279.102C710.418 277.356 711.33 275.094 711.33 272.321C711.33 270.555 710.805 268.849 709.753 267.212C708.701 265.57 706.851 263.973 704.202 262.415L697.139 258.378C691.965 255.6 688.16 252.802 685.715 249.985C683.274 247.167 682.054 243.844 682.054 240.014C682.054 235.302 683.736 231.433 687.104 228.407C690.467 225.376 694.698 223.863 699.788 223.863C702.015 223.863 704.465 224.285 707.139 225.123C709.807 225.967 711.315 226.383 711.653 226.383C712.412 226.383 712.957 226.279 713.295 226.066C713.632 225.857 713.925 225.52 714.178 225.054H715.69L716.132 242.658H714.178C713.334 238.581 712.198 235.401 710.77 233.129C708.161 228.923 704.396 226.82 699.475 226.82C696.529 226.82 694.217 227.723 692.535 229.533C690.854 231.344 690.011 233.467 690.011 235.907C690.011 239.776 692.912 243.224 698.716 246.255L707.045 250.734C716.003 255.615 720.482 261.294 720.482 267.768C720.482 272.733 718.622 276.791 714.907 279.945C711.191 283.1 706.33 284.678 700.328 284.678C697.808 284.678 694.951 284.256 691.762 283.418C688.572 282.574 686.682 282.158 686.092 282.158C685.586 282.158 685.144 282.336 684.768 282.693C684.391 283.051 684.093 283.482 683.885 283.988H682.243V263.611Z" fill="white"/>
<path d="M0 165.012C9.72513 163.961 15.801 162.175 18.2275 159.634C20.654 157.092 21.8768 150.463 21.8768 139.744V31.9649C21.8768 23.0517 20.5202 17.2625 17.8071 14.5876C15.094 11.9127 9.1615 10.2505 0.0095625 9.60087V4.98669H69.0312V9.60087C59.9271 10.2505 54.0041 11.9127 51.2719 14.5876C48.5301 17.2625 47.164 23.0517 47.164 31.9649V80.4473H122.749V31.9649C122.749 23.0517 121.411 17.2625 118.736 14.5876C116.062 11.9127 110.11 10.2505 100.872 9.60087V4.98669H169.894V9.60087C160.742 10.2505 154.809 11.9127 152.096 14.5876C149.383 17.2625 148.026 23.0517 148.026 31.9649V142.667C148.026 151.695 149.383 157.475 152.096 160.006C154.809 162.547 160.742 164.219 169.894 165.022V169.636H100.872V165.022C110.674 164.057 116.768 162.28 119.157 159.7C121.545 157.121 122.739 150.472 122.739 139.744V91.3856H47.1545V142.667C47.1545 151.695 48.5206 157.494 51.2623 160.073C54.0041 162.652 59.9175 164.305 69.0217 165.031V169.645H0V165.031V165.012Z" fill="white"/>
<path d="M202.451 116.042C209.903 111.18 224.768 104.579 247.046 96.2386V85.9117C247.046 77.6482 246.234 71.8971 244.619 68.6586C241.868 63.2324 236.155 60.5193 227.49 60.5193C223.363 60.5193 219.427 61.5701 215.702 63.6814C211.976 65.8691 210.113 68.8688 210.113 72.671C210.113 73.6454 210.314 75.2789 210.724 77.5908C211.126 79.9027 211.336 81.3739 211.336 82.0235C211.336 86.5613 209.836 89.7234 206.836 91.5003C205.136 92.5512 203.111 93.0765 200.76 93.0765C197.111 93.0765 194.322 91.8824 192.373 89.4941C190.424 87.1058 189.459 84.45 189.459 81.5363C189.459 75.8712 192.965 69.9292 199.968 63.7387C206.98 57.5387 217.24 54.4435 230.777 54.4435C246.492 54.4435 257.143 59.5449 262.732 69.7573C265.732 75.3459 267.231 83.4852 267.231 94.1847V142.915C267.231 147.616 267.556 150.854 268.206 152.641C269.257 155.803 271.444 157.379 274.769 157.379C276.632 157.379 278.17 157.092 279.383 156.529C280.596 155.965 282.708 154.58 285.698 152.402V158.716C283.099 161.879 280.31 164.467 277.31 166.493C272.772 169.569 268.158 171.107 263.458 171.107C257.946 171.107 253.962 169.33 251.488 165.757C249.014 162.194 247.657 157.943 247.418 152.994C241.266 158.344 235.993 162.308 231.617 164.907C224.242 169.282 217.24 171.47 210.591 171.47C203.626 171.47 197.589 169.024 192.487 164.124C187.386 159.223 184.835 153.004 184.835 145.466C184.835 133.725 190.711 123.914 202.451 116.061V116.042ZM247.046 102.305C237.731 105.381 230.031 108.792 223.956 112.508C212.291 119.72 206.454 127.898 206.454 137.05C206.454 144.425 208.881 149.851 213.743 153.328C216.905 155.593 220.43 156.729 224.319 156.729C229.668 156.729 234.789 155.23 239.69 152.23C244.59 149.23 247.036 145.428 247.036 140.804V102.286L247.046 102.305Z" fill="white"/>
<path d="M278.714 57.9591H329.995V61.36C325.945 61.446 322.945 61.8186 321.006 62.4778C317.28 63.5573 315.417 65.6685 315.417 68.8115C315.417 69.977 315.618 71.152 316.029 72.3557C316.43 73.5594 317.166 75.3555 318.216 77.7629L346.341 138.578L369.498 77.2756C369.737 76.6165 370.128 75.1166 370.654 72.7952C371.179 70.4738 371.447 68.8975 371.447 68.0664C371.447 65.9073 370.721 64.3311 369.259 63.3375C367.797 62.344 365.934 61.7612 363.67 61.5988L359.906 61.3505V57.9495H393.323V61.3505C389.999 61.7708 387.506 62.9363 385.853 64.8661C384.191 66.7863 382.758 69.4707 381.544 72.9003L343.265 174.24C336.625 191.742 330.263 204.419 324.187 212.272C318.111 220.124 310.411 224.06 301.097 224.06C296.559 224.06 292.308 222.923 288.334 220.659C284.36 218.395 282.382 214.784 282.382 209.845C282.382 206.607 283.557 203.951 285.927 201.887C288.286 199.824 291.267 198.792 294.868 198.792C296.951 198.792 300.046 199.566 304.173 201.104C308.291 202.642 311.233 203.416 313 203.416C317.481 203.416 322.2 197.913 327.158 186.917C332.116 175.912 334.6 168.652 334.6 165.127C334.6 164.41 334.485 163.522 334.256 162.49C334.027 161.458 333.75 160.522 333.444 159.729L295.155 76.9222C292.404 70.9228 289.987 66.9773 287.923 65.0762C285.86 63.1751 282.803 61.9332 278.752 61.3696V57.9686L278.714 57.9591Z" fill="white"/>
<path d="M414.436 116.042C421.888 111.18 436.752 104.579 459.03 96.2386V85.9117C459.03 77.6482 458.218 71.8971 456.604 68.6586C453.852 63.2324 448.14 60.5193 439.475 60.5193C435.348 60.5193 431.412 61.5701 427.686 63.6814C423.961 65.8691 422.098 68.8688 422.098 72.671C422.098 73.6454 422.298 75.2789 422.709 77.5908C423.11 79.9027 423.321 81.3739 423.321 82.0235C423.321 86.5613 421.821 89.7234 418.821 91.5003C417.121 92.5512 415.095 93.0765 412.745 93.0765C409.096 93.0765 406.306 91.8824 404.357 89.4941C402.409 87.1058 401.444 84.45 401.444 81.5363C401.444 75.8712 404.95 69.9292 411.952 63.7387C418.964 57.5387 429.224 54.4435 442.761 54.4435C458.476 54.4435 469.128 59.5449 474.717 69.7573C477.716 75.3459 479.216 83.4852 479.216 94.1847V142.915C479.216 147.616 479.541 150.854 480.191 152.641C481.241 155.803 483.429 157.379 486.754 157.379C488.616 157.379 490.155 157.092 491.368 156.529C492.581 155.965 494.692 154.58 497.682 152.402V158.716C495.084 161.879 492.294 164.467 489.295 166.493C484.757 169.569 480.143 171.107 475.443 171.107C469.93 171.107 465.947 169.33 463.473 165.757C460.998 162.194 459.642 157.943 459.403 152.994C453.251 158.344 447.977 162.308 443.602 164.907C436.227 169.282 429.224 171.47 422.575 171.47C415.611 171.47 409.574 169.024 404.472 164.124C399.371 159.223 396.82 153.004 396.82 145.466C396.82 133.725 402.695 123.914 414.436 116.061V116.042ZM459.03 102.305C449.716 105.381 442.016 108.792 435.94 112.508C424.276 119.72 418.439 127.898 418.439 137.05C418.439 144.425 420.865 149.851 425.728 153.328C428.89 155.593 432.415 156.729 436.303 156.729C441.653 156.729 446.774 155.23 451.674 152.23C456.575 149.23 459.021 145.428 459.021 140.804V102.286L459.03 102.305Z" fill="white"/>
<path d="M561.469 57.5869V66.3376H536.678L536.439 136.334C536.439 142.486 536.965 147.148 538.015 150.31C539.964 155.899 543.766 158.698 549.441 158.698C552.355 158.698 554.886 158.01 557.036 156.634C559.185 155.259 561.631 153.071 564.382 150.071L567.544 152.746L564.869 156.395C560.656 162.07 556.195 166.073 551.505 168.423C546.804 170.773 542.267 171.948 537.891 171.948C528.329 171.948 521.851 167.697 518.451 159.185C516.588 154.571 515.651 148.17 515.651 139.983V66.3471H502.411C502 66.1083 501.704 65.8599 501.503 65.6211C501.303 65.3822 501.198 65.0574 501.198 64.6466C501.198 63.8346 501.379 63.2137 501.742 62.7647C502.105 62.3157 503.261 61.2839 505.21 59.6695C510.798 55.0553 514.83 51.3104 517.304 48.4349C519.778 45.5594 525.587 37.9646 534.739 25.6506C535.79 25.6506 536.42 25.727 536.621 25.8894C536.821 26.0518 536.926 26.6632 536.926 27.7141V57.6059H561.469V57.5869Z" fill="white"/>
<path d="M573.505 166.225C582.17 165.413 587.644 163.942 589.908 161.793C592.172 159.643 593.309 153.835 593.309 144.358V86.3989C593.309 81.1351 592.946 77.4858 592.22 75.4605C591.007 72.136 588.456 70.4738 584.568 70.4738C583.68 70.4738 582.81 70.5502 581.95 70.7126C581.1 70.875 578.655 71.5246 574.604 72.6615V68.8975L579.83 67.1971C594.006 62.5829 603.894 59.096 609.483 56.7459C611.747 55.7715 613.208 55.2842 613.858 55.2842C614.02 55.8479 614.097 56.4593 614.097 57.1089V144.358C614.097 153.596 615.215 159.385 617.44 161.735C619.666 164.085 624.71 165.585 632.573 166.235V169.636H573.515V166.235L573.505 166.225ZM592.822 3.74486C595.248 1.24193 598.248 0 601.811 0C605.375 0 608.269 1.23235 610.744 3.68751C613.208 6.14268 614.45 9.15195 614.45 12.6962C614.45 16.2404 613.218 19.1255 610.744 21.5806C608.269 24.0358 605.289 25.2682 601.811 25.2682C598.334 25.2682 595.248 24.0358 592.822 21.5806C590.395 19.1255 589.173 16.1544 589.173 12.6962C589.173 9.23793 590.386 6.24779 592.822 3.74486Z" fill="white"/>
<path d="M648.107 131.347H652.12C653.982 140.585 656.485 147.673 659.638 152.612C665.293 161.688 673.576 166.225 684.486 166.225C690.542 166.225 695.338 164.544 698.854 161.181C702.369 157.819 704.127 153.462 704.127 148.122C704.127 144.721 703.114 141.435 701.089 138.282C699.064 135.12 695.5 132.044 690.399 129.044L676.795 121.268C666.831 115.918 659.504 110.53 654.794 105.104C650.094 99.6779 647.744 93.2773 647.744 85.9022C647.744 76.8267 650.983 69.3752 657.469 63.5478C663.946 57.7108 672.095 54.7971 681.897 54.7971C686.186 54.7971 690.905 55.6091 696.055 57.2236C701.194 58.8476 704.098 59.6501 704.748 59.6501C706.21 59.6501 707.26 59.4495 707.91 59.0387C708.56 58.6374 709.123 57.9878 709.611 57.0898H712.524L713.374 90.9941H709.611C707.986 83.1414 705.799 77.0177 703.047 72.6424C698.023 64.5413 690.772 60.4908 681.295 60.4908C675.62 60.4908 671.169 62.2294 667.93 65.7163C664.691 69.2032 663.067 73.292 663.067 77.9922C663.067 85.4437 668.656 92.0831 679.833 97.9201L695.873 106.547C713.126 115.947 721.753 126.885 721.753 139.352C721.753 148.915 718.17 156.729 711.015 162.805C703.859 168.881 694.497 171.919 682.938 171.919C678.085 171.919 672.582 171.107 666.44 169.493C660.297 167.868 656.657 167.066 655.52 167.066C654.546 167.066 653.696 167.41 652.97 168.098C652.244 168.786 651.67 169.617 651.269 170.591H648.107V131.347Z" fill="white"/>
</svg>
